<?xml version="1.0" encoding="UTF-8" standalone="no"?>
<!DOCTYPE svg PUBLIC "-//W3C//DTD SVG 1.1//EN"
 "http://www.w3.org/Graphics/SVG/1.1/DTD/svg11.dtd">
<!-- Generated by graphviz version 2.30.1 (20201013.1554)
 -->
<!-- Title: snakemake_dag Pages: 1 -->
<svg width="3414pt" height="194pt"
 viewBox="0.00 0.00 3414.00 194.00" xmlns="http://www.w3.org/2000/svg" xmlns:xlink="http://www.w3.org/1999/xlink">
<g id="graph0" class="graph" transform="scale(1 1) rotate(0) translate(4 190)">
<title>snakemake_dag</title>
<polygon fill="white" stroke="white" points="-4,5 -4,-190 3411,-190 3411,5 -4,5"/>
<!-- 0 -->
<g id="node1" class="node"><title>0</title>
<path fill="none" stroke="#56d8a9" stroke-width="2" d="M1718,-36C1718,-36 1688,-36 1688,-36 1682,-36 1676,-30 1676,-24 1676,-24 1676,-12 1676,-12 1676,-6 1682,-0 1688,-0 1688,-0 1718,-0 1718,-0 1724,-0 1730,-6 1730,-12 1730,-12 1730,-24 1730,-24 1730,-30 1724,-36 1718,-36"/>
<text text-anchor="middle" x="1703" y="-15.5" font-family="sans" font-size="10.00">all</text>
</g>
<!-- 1 -->
<g id="node2" class="node"><title>1</title>
<path fill="none" stroke="#afd856" stroke-width="2" d="M106.25,-108C106.25,-108 41.75,-108 41.75,-108 35.75,-108 29.75,-102 29.75,-96 29.75,-96 29.75,-84 29.75,-84 29.75,-78 35.75,-72 41.75,-72 41.75,-72 106.25,-72 106.25,-72 112.25,-72 118.25,-78 118.25,-84 118.25,-84 118.25,-96 118.25,-96 118.25,-102 112.25,-108 106.25,-108"/>
<text text-anchor="middle" x="74" y="-87.5" font-family="sans" font-size="10.00">genotype_gvcf</text>
</g>
<!-- 1&#45;&gt;0 -->
<g id="edge1" class="edge"><title>1&#45;&gt;0</title>
<path fill="none" stroke="grey" stroke-width="2" d="M118.575,-78.4391C130.95,-75.8988 144.439,-73.491 157,-72 462.558,-35.7304 1459.8,-21.9264 1665.63,-19.4298"/>
<polygon fill="grey" stroke="grey" points="1665.95,-22.9263 1675.91,-19.3066 1665.87,-15.9268 1665.95,-22.9263"/>
</g>
<!-- 2 -->
<g id="node3" class="node"><title>2</title>
<path fill="none" stroke="#d85656" stroke-width="2" d="M106.25,-185.5C106.25,-185.5 11.75,-185.5 11.75,-185.5 5.75,-185.5 -0.25,-179.5 -0.25,-173.5 -0.25,-173.5 -0.25,-156.5 -0.25,-156.5 -0.25,-150.5 5.75,-144.5 11.75,-144.5 11.75,-144.5 106.25,-144.5 106.25,-144.5 112.25,-144.5 118.25,-150.5 118.25,-156.5 118.25,-156.5 118.25,-173.5 118.25,-173.5 118.25,-179.5 112.25,-185.5 106.25,-185.5"/>
<text text-anchor="middle" x="59" y="-173.5" font-family="sans" font-size="10.00">genomics_db_import</text>
<text text-anchor="middle" x="59" y="-162.5" font-family="sans" font-size="10.00">chrom: 1</text>
<text text-anchor="middle" x="59" y="-151.5" font-family="sans" font-size="10.00">project: genmark</text>
</g>
<!-- 2&#45;&gt;1 -->
<g id="edge26" class="edge"><title>2&#45;&gt;1</title>
<path fill="none" stroke="grey" stroke-width="2" d="M63.0197,-144.437C64.6913,-136.302 66.6593,-126.725 68.4641,-117.941"/>
<polygon fill="grey" stroke="grey" points="71.8958,-118.63 70.4802,-108.13 65.039,-117.221 71.8958,-118.63"/>
</g>
<!-- 3 -->
<g id="node4" class="node"><title>3</title>
<path fill="none" stroke="#afd856" stroke-width="2" d="M243.25,-108C243.25,-108 178.75,-108 178.75,-108 172.75,-108 166.75,-102 166.75,-96 166.75,-96 166.75,-84 166.75,-84 166.75,-78 172.75,-72 178.75,-72 178.75,-72 243.25,-72 243.25,-72 249.25,-72 255.25,-78 255.25,-84 255.25,-84 255.25,-96 255.25,-96 255.25,-102 249.25,-108 243.25,-108"/>
<text text-anchor="middle" x="211" y="-87.5" font-family="sans" font-size="10.00">genotype_gvcf</text>
</g>
<!-- 3&#45;&gt;0 -->
<g id="edge2" class="edge"><title>3&#45;&gt;0</title>
<path fill="none" stroke="grey" stroke-width="2" d="M255.578,-78.4668C267.953,-75.9266 281.441,-73.5119 294,-72 570.84,-38.6718 1470.81,-22.6889 1665.6,-19.5738"/>
<polygon fill="grey" stroke="grey" points="1665.94,-23.0689 1675.88,-19.4109 1665.83,-16.0698 1665.94,-23.0689"/>
</g>
<!-- 4 -->
<g id="node5" class="node"><title>4</title>
<path fill="none" stroke="#d85656" stroke-width="2" d="M243.25,-185.5C243.25,-185.5 148.75,-185.5 148.75,-185.5 142.75,-185.5 136.75,-179.5 136.75,-173.5 136.75,-173.5 136.75,-156.5 136.75,-156.5 136.75,-150.5 142.75,-144.5 148.75,-144.5 148.75,-144.5 243.25,-144.5 243.25,-144.5 249.25,-144.5 255.25,-150.5 255.25,-156.5 255.25,-156.5 255.25,-173.5 255.25,-173.5 255.25,-179.5 249.25,-185.5 243.25,-185.5"/>
<text text-anchor="middle" x="196" y="-173.5" font-family="sans" font-size="10.00">genomics_db_import</text>
<text text-anchor="middle" x="196" y="-162.5" font-family="sans" font-size="10.00">chrom: 2</text>
<text text-anchor="middle" x="196" y="-151.5" font-family="sans" font-size="10.00">project: genmark</text>
</g>
<!-- 4&#45;&gt;3 -->
<g id="edge27" class="edge"><title>4&#45;&gt;3</title>
<path fill="none" stroke="grey" stroke-width="2" d="M200.02,-144.437C201.691,-136.302 203.659,-126.725 205.464,-117.941"/>
<polygon fill="grey" stroke="grey" points="208.896,-118.63 207.48,-108.13 202.039,-117.221 208.896,-118.63"/>
</g>
<!-- 5 -->
<g id="node6" class="node"><title>5</title>
<path fill="none" stroke="#afd856" stroke-width="2" d="M380.25,-108C380.25,-108 315.75,-108 315.75,-108 309.75,-108 303.75,-102 303.75,-96 303.75,-96 303.75,-84 303.75,-84 303.75,-78 309.75,-72 315.75,-72 315.75,-72 380.25,-72 380.25,-72 386.25,-72 392.25,-78 392.25,-84 392.25,-84 392.25,-96 392.25,-96 392.25,-102 386.25,-108 380.25,-108"/>
<text text-anchor="middle" x="348" y="-87.5" font-family="sans" font-size="10.00">genotype_gvcf</text>
</g>
<!-- 5&#45;&gt;0 -->
<g id="edge3" class="edge"><title>5&#45;&gt;0</title>
<path fill="none" stroke="grey" stroke-width="2" d="M392.582,-78.5004C404.957,-75.9603 418.444,-73.5373 431,-72 679.308,-41.5971 1483.04,-23.5214 1665.79,-19.744"/>
<polygon fill="grey" stroke="grey" points="1666.04,-23.2398 1675.97,-19.5353 1665.9,-16.2412 1666.04,-23.2398"/>
</g>
<!-- 6 -->
<g id="node7" class="node"><title>6</title>
<path fill="none" stroke="#d85656" stroke-width="2" d="M380.25,-185.5C380.25,-185.5 285.75,-185.5 285.75,-185.5 279.75,-185.5 273.75,-179.5 273.75,-173.5 273.75,-173.5 273.75,-156.5 273.75,-156.5 273.75,-150.5 279.75,-144.5 285.75,-144.5 285.75,-144.5 380.25,-144.5 380.25,-144.5 386.25,-144.5 392.25,-150.5 392.25,-156.5 392.25,-156.5 392.25,-173.5 392.25,-173.5 392.25,-179.5 386.25,-185.5 380.25,-185.5"/>
<text text-anchor="middle" x="333" y="-173.5" font-family="sans" font-size="10.00">genomics_db_import</text>
<text text-anchor="middle" x="333" y="-162.5" font-family="sans" font-size="10.00">chrom: 3</text>
<text text-anchor="middle" x="333" y="-151.5" font-family="sans" font-size="10.00">project: genmark</text>
</g>
<!-- 6&#45;&gt;5 -->
<g id="edge28" class="edge"><title>6&#45;&gt;5</title>
<path fill="none" stroke="grey" stroke-width="2" d="M337.02,-144.437C338.691,-136.302 340.659,-126.725 342.464,-117.941"/>
<polygon fill="grey" stroke="grey" points="345.896,-118.63 344.48,-108.13 339.039,-117.221 345.896,-118.63"/>
</g>
<!-- 7 -->
<g id="node8" class="node"><title>7</title>
<path fill="none" stroke="#afd856" stroke-width="2" d="M517.25,-108C517.25,-108 452.75,-108 452.75,-108 446.75,-108 440.75,-102 440.75,-96 440.75,-96 440.75,-84 440.75,-84 440.75,-78 446.75,-72 452.75,-72 452.75,-72 517.25,-72 517.25,-72 523.25,-72 529.25,-78 529.25,-84 529.25,-84 529.25,-96 529.25,-96 529.25,-102 523.25,-108 517.25,-108"/>
<text text-anchor="middle" x="485" y="-87.5" font-family="sans" font-size="10.00">genotype_gvcf</text>
</g>
<!-- 7&#45;&gt;0 -->
<g id="edge4" class="edge"><title>7&#45;&gt;0</title>
<path fill="none" stroke="grey" stroke-width="2" d="M529.587,-78.542C541.963,-76.0021 555.448,-73.5689 568,-72 996.709,-18.4164 1522.63,-17.7254 1665.63,-18.6439"/>
<polygon fill="grey" stroke="grey" points="1665.61,-22.1438 1675.64,-18.7151 1665.66,-15.144 1665.61,-22.1438"/>
</g>
<!-- 8 -->
<g id="node9" class="node"><title>8</title>
<path fill="none" stroke="#d85656" stroke-width="2" d="M517.25,-185.5C517.25,-185.5 422.75,-185.5 422.75,-185.5 416.75,-185.5 410.75,-179.5 410.75,-173.5 410.75,-173.5 410.75,-156.5 410.75,-156.5 410.75,-150.5 416.75,-144.5 422.75,-144.5 422.75,-144.5 517.25,-144.5 517.25,-144.5 523.25,-144.5 529.25,-150.5 529.25,-156.5 529.25,-156.5 529.25,-173.5 529.25,-173.5 529.25,-179.5 523.25,-185.5 517.25,-185.5"/>
<text text-anchor="middle" x="470" y="-173.5" font-family="sans" font-size="10.00">genomics_db_import</text>
<text text-anchor="middle" x="470" y="-162.5" font-family="sans" font-size="10.00">chrom: 4</text>
<text text-anchor="middle" x="470" y="-151.5" font-family="sans" font-size="10.00">project: genmark</text>
</g>
<!-- 8&#45;&gt;7 -->
<g id="edge29" class="edge"><title>8&#45;&gt;7</title>
<path fill="none" stroke="grey" stroke-width="2" d="M474.02,-144.437C475.691,-136.302 477.659,-126.725 479.464,-117.941"/>
<polygon fill="grey" stroke="grey" points="482.896,-118.63 481.48,-108.13 476.039,-117.221 482.896,-118.63"/>
</g>
<!-- 9 -->
<g id="node10" class="node"><title>9</title>
<path fill="none" stroke="#afd856" stroke-width="2" d="M654.25,-108C654.25,-108 589.75,-108 589.75,-108 583.75,-108 577.75,-102 577.75,-96 577.75,-96 577.75,-84 577.75,-84 577.75,-78 583.75,-72 589.75,-72 589.75,-72 654.25,-72 654.25,-72 660.25,-72 666.25,-78 666.25,-84 666.25,-84 666.25,-96 666.25,-96 666.25,-102 660.25,-108 654.25,-108"/>
<text text-anchor="middle" x="622" y="-87.5" font-family="sans" font-size="10.00">genotype_gvcf</text>
</g>
<!-- 9&#45;&gt;0 -->
<g id="edge5" class="edge"><title>9&#45;&gt;0</title>
<path fill="none" stroke="grey" stroke-width="2" d="M666.594,-78.5951C678.969,-76.0554 692.453,-73.609 705,-72 1077.45,-24.2383 1533.41,-19.3528 1665.51,-18.9839"/>
<polygon fill="grey" stroke="grey" points="1665.88,-22.4832 1675.87,-18.9626 1665.87,-15.4832 1665.88,-22.4832"/>
</g>
<!-- 10 -->
<g id="node11" class="node"><title>10</title>
<path fill="none" stroke="#d85656" stroke-width="2" d="M654.25,-185.5C654.25,-185.5 559.75,-185.5 559.75,-185.5 553.75,-185.5 547.75,-179.5 547.75,-173.5 547.75,-173.5 547.75,-156.5 547.75,-156.5 547.75,-150.5 553.75,-144.5 559.75,-144.5 559.75,-144.5 654.25,-144.5 654.25,-144.5 660.25,-144.5 666.25,-150.5 666.25,-156.5 666.25,-156.5 666.25,-173.5 666.25,-173.5 666.25,-179.5 660.25,-185.5 654.25,-185.5"/>
<text text-anchor="middle" x="607" y="-173.5" font-family="sans" font-size="10.00">genomics_db_import</text>
<text text-anchor="middle" x="607" y="-162.5" font-family="sans" font-size="10.00">chrom: 5</text>
<text text-anchor="middle" x="607" y="-151.5" font-family="sans" font-size="10.00">project: genmark</text>
</g>
<!-- 10&#45;&gt;9 -->
<g id="edge30" class="edge"><title>10&#45;&gt;9</title>
<path fill="none" stroke="grey" stroke-width="2" d="M611.02,-144.437C612.691,-136.302 614.659,-126.725 616.464,-117.941"/>
<polygon fill="grey" stroke="grey" points="619.896,-118.63 618.48,-108.13 613.039,-117.221 619.896,-118.63"/>
</g>
<!-- 11 -->
<g id="node12" class="node"><title>11</title>
<path fill="none" stroke="#afd856" stroke-width="2" d="M791.25,-108C791.25,-108 726.75,-108 726.75,-108 720.75,-108 714.75,-102 714.75,-96 714.75,-96 714.75,-84 714.75,-84 714.75,-78 720.75,-72 726.75,-72 726.75,-72 791.25,-72 791.25,-72 797.25,-72 803.25,-78 803.25,-84 803.25,-84 803.25,-96 803.25,-96 803.25,-102 797.25,-108 791.25,-108"/>
<text text-anchor="middle" x="759" y="-87.5" font-family="sans" font-size="10.00">genotype_gvcf</text>
</g>
<!-- 11&#45;&gt;0 -->
<g id="edge6" class="edge"><title>11&#45;&gt;0</title>
<path fill="none" stroke="grey" stroke-width="2" d="M803.274,-78.8487C816.035,-76.2471 830.018,-73.7054 843,-72 1159.37,-30.4397 1545.61,-21.3415 1665.63,-19.4628"/>
<polygon fill="grey" stroke="grey" points="1665.81,-22.9605 1675.76,-19.3117 1665.71,-15.9613 1665.81,-22.9605"/>
</g>
<!-- 12 -->
<g id="node13" class="node"><title>12</title>
<path fill="none" stroke="#d85656" stroke-width="2" d="M791.25,-185.5C791.25,-185.5 696.75,-185.5 696.75,-185.5 690.75,-185.5 684.75,-179.5 684.75,-173.5 684.75,-173.5 684.75,-156.5 684.75,-156.5 684.75,-150.5 690.75,-144.5 696.75,-144.5 696.75,-144.5 791.25,-144.5 791.25,-144.5 797.25,-144.5 803.25,-150.5 803.25,-156.5 803.25,-156.5 803.25,-173.5 803.25,-173.5 803.25,-179.5 797.25,-185.5 791.25,-185.5"/>
<text text-anchor="middle" x="744" y="-173.5" font-family="sans" font-size="10.00">genomics_db_import</text>
<text text-anchor="middle" x="744" y="-162.5" font-family="sans" font-size="10.00">chrom: 6</text>
<text text-anchor="middle" x="744" y="-151.5" font-family="sans" font-size="10.00">project: genmark</text>
</g>
<!-- 12&#45;&gt;11 -->
<g id="edge31" class="edge"><title>12&#45;&gt;11</title>
<path fill="none" stroke="grey" stroke-width="2" d="M748.02,-144.437C749.691,-136.302 751.659,-126.725 753.464,-117.941"/>
<polygon fill="grey" stroke="grey" points="756.896,-118.63 755.48,-108.13 750.039,-117.221 756.896,-118.63"/>
</g>
<!-- 13 -->
<g id="node14" class="node"><title>13</title>
<path fill="none" stroke="#afd856" stroke-width="2" d="M928.25,-108C928.25,-108 863.75,-108 863.75,-108 857.75,-108 851.75,-102 851.75,-96 851.75,-96 851.75,-84 851.75,-84 851.75,-78 857.75,-72 863.75,-72 863.75,-72 928.25,-72 928.25,-72 934.25,-72 940.25,-78 940.25,-84 940.25,-84 940.25,-96 940.25,-96 940.25,-102 934.25,-108 928.25,-108"/>
<text text-anchor="middle" x="896" y="-87.5" font-family="sans" font-size="10.00">genotype_gvcf</text>
</g>
<!-- 13&#45;&gt;0 -->
<g id="edge7" class="edge"><title>13&#45;&gt;0</title>
<path fill="none" stroke="grey" stroke-width="2" d="M940.287,-78.9461C953.049,-76.3461 967.028,-73.7808 980,-72 1240.99,-36.1712 1558.53,-23.5004 1665.67,-20.0704"/>
<polygon fill="grey" stroke="grey" points="1666.07,-23.5598 1675.95,-19.7491 1665.85,-16.5632 1666.07,-23.5598"/>
</g>
<!-- 14 -->
<g id="node15" class="node"><title>14</title>
<path fill="none" stroke="#d85656" stroke-width="2" d="M928.25,-185.5C928.25,-185.5 833.75,-185.5 833.75,-185.5 827.75,-185.5 821.75,-179.5 821.75,-173.5 821.75,-173.5 821.75,-156.5 821.75,-156.5 821.75,-150.5 827.75,-144.5 833.75,-144.5 833.75,-144.5 928.25,-144.5 928.25,-144.5 934.25,-144.5 940.25,-150.5 940.25,-156.5 940.25,-156.5 940.25,-173.5 940.25,-173.5 940.25,-179.5 934.25,-185.5 928.25,-185.5"/>
<text text-anchor="middle" x="881" y="-173.5" font-family="sans" font-size="10.00">genomics_db_import</text>
<text text-anchor="middle" x="881" y="-162.5" font-family="sans" font-size="10.00">chrom: 7</text>
<text text-anchor="middle" x="881" y="-151.5" font-family="sans" font-size="10.00">project: genmark</text>
</g>
<!-- 14&#45;&gt;13 -->
<g id="edge32" class="edge"><title>14&#45;&gt;13</title>
<path fill="none" stroke="grey" stroke-width="2" d="M885.02,-144.437C886.691,-136.302 888.659,-126.725 890.464,-117.941"/>
<polygon fill="grey" stroke="grey" points="893.896,-118.63 892.48,-108.13 887.039,-117.221 893.896,-118.63"/>
</g>
<!-- 15 -->
<g id="node16" class="node"><title>15</title>
<path fill="none" stroke="#afd856" stroke-width="2" d="M1065.25,-108C1065.25,-108 1000.75,-108 1000.75,-108 994.75,-108 988.75,-102 988.75,-96 988.75,-96 988.75,-84 988.75,-84 988.75,-78 994.75,-72 1000.75,-72 1000.75,-72 1065.25,-72 1065.25,-72 1071.25,-72 1077.25,-78 1077.25,-84 1077.25,-84 1077.25,-96 1077.25,-96 1077.25,-102 1071.25,-108 1065.25,-108"/>
<text text-anchor="middle" x="1033" y="-87.5" font-family="sans" font-size="10.00">genotype_gvcf</text>
</g>
<!-- 15&#45;&gt;0 -->
<g id="edge8" class="edge"><title>15&#45;&gt;0</title>
<path fill="none" stroke="grey" stroke-width="2" d="M1077.31,-79.0887C1090.07,-76.4909 1104.04,-73.8911 1117,-72 1323.09,-41.9175 1572.62,-26.1337 1665.66,-20.9546"/>
<polygon fill="grey" stroke="grey" points="1665.92,-24.4459 1675.71,-20.4028 1665.54,-17.4564 1665.92,-24.4459"/>
</g>
<!-- 16 -->
<g id="node17" class="node"><title>16</title>
<path fill="none" stroke="#d85656" stroke-width="2" d="M1065.25,-185.5C1065.25,-185.5 970.75,-185.5 970.75,-185.5 964.75,-185.5 958.75,-179.5 958.75,-173.5 958.75,-173.5 958.75,-156.5 958.75,-156.5 958.75,-150.5 964.75,-144.5 970.75,-144.5 970.75,-144.5 1065.25,-144.5 1065.25,-144.5 1071.25,-144.5 1077.25,-150.5 1077.25,-156.5 1077.25,-156.5 1077.25,-173.5 1077.25,-173.5 1077.25,-179.5 1071.25,-185.5 1065.25,-185.5"/>
<text text-anchor="middle" x="1018" y="-173.5" font-family="sans" font-size="10.00">genomics_db_import</text>
<text text-anchor="middle" x="1018" y="-162.5" font-family="sans" font-size="10.00">chrom: 8</text>
<text text-anchor="middle" x="1018" y="-151.5" font-family="sans" font-size="10.00">project: genmark</text>
</g>
<!-- 16&#45;&gt;15 -->
<g id="edge33" class="edge"><title>16&#45;&gt;15</title>
<path fill="none" stroke="grey" stroke-width="2" d="M1022.02,-144.437C1023.69,-136.302 1025.66,-126.725 1027.46,-117.941"/>
<polygon fill="grey" stroke="grey" points="1030.9,-118.63 1029.48,-108.13 1024.04,-117.221 1030.9,-118.63"/>
</g>
<!-- 17 -->
<g id="node18" class="node"><title>17</title>
<path fill="none" stroke="#afd856" stroke-width="2" d="M1202.25,-108C1202.25,-108 1137.75,-108 1137.75,-108 1131.75,-108 1125.75,-102 1125.75,-96 1125.75,-96 1125.75,-84 1125.75,-84 1125.75,-78 1131.75,-72 1137.75,-72 1137.75,-72 1202.25,-72 1202.25,-72 1208.25,-72 1214.25,-78 1214.25,-84 1214.25,-84 1214.25,-96 1214.25,-96 1214.25,-102 1208.25,-108 1202.25,-108"/>
<text text-anchor="middle" x="1170" y="-87.5" font-family="sans" font-size="10.00">genotype_gvcf</text>
</g>
<!-- 17&#45;&gt;0 -->
<g id="edge9" class="edge"><title>17&#45;&gt;0</title>
<path fill="none" stroke="grey" stroke-width="2" d="M1214.34,-79.3169C1227.1,-76.7228 1241.07,-74.0678 1254,-72 1405.94,-47.7001 1588.46,-29.538 1665.64,-22.3623"/>
<polygon fill="grey" stroke="grey" points="1666.18,-25.8273 1675.82,-21.4231 1665.54,-18.8569 1666.18,-25.8273"/>
</g>
<!-- 18 -->
<g id="node19" class="node"><title>18</title>
<path fill="none" stroke="#d85656" stroke-width="2" d="M1202.25,-185.5C1202.25,-185.5 1107.75,-185.5 1107.75,-185.5 1101.75,-185.5 1095.75,-179.5 1095.75,-173.5 1095.75,-173.5 1095.75,-156.5 1095.75,-156.5 1095.75,-150.5 1101.75,-144.5 1107.75,-144.5 1107.75,-144.5 1202.25,-144.5 1202.25,-144.5 1208.25,-144.5 1214.25,-150.5 1214.25,-156.5 1214.25,-156.5 1214.25,-173.5 1214.25,-173.5 1214.25,-179.5 1208.25,-185.5 1202.25,-185.5"/>
<text text-anchor="middle" x="1155" y="-173.5" font-family="sans" font-size="10.00">genomics_db_import</text>
<text text-anchor="middle" x="1155" y="-162.5" font-family="sans" font-size="10.00">chrom: 9</text>
<text text-anchor="middle" x="1155" y="-151.5" font-family="sans" font-size="10.00">project: genmark</text>
</g>
<!-- 18&#45;&gt;17 -->
<g id="edge34" class="edge"><title>18&#45;&gt;17</title>
<path fill="none" stroke="grey" stroke-width="2" d="M1159.02,-144.437C1160.69,-136.302 1162.66,-126.725 1164.46,-117.941"/>
<polygon fill="grey" stroke="grey" points="1167.9,-118.63 1166.48,-108.13 1161.04,-117.221 1167.9,-118.63"/>
</g>
<!-- 19 -->
<g id="node20" class="node"><title>19</title>
<path fill="none" stroke="#afd856" stroke-width="2" d="M1339.25,-108C1339.25,-108 1274.75,-108 1274.75,-108 1268.75,-108 1262.75,-102 1262.75,-96 1262.75,-96 1262.75,-84 1262.75,-84 1262.75,-78 1268.75,-72 1274.75,-72 1274.75,-72 1339.25,-72 1339.25,-72 1345.25,-72 1351.25,-78 1351.25,-84 1351.25,-84 1351.25,-96 1351.25,-96 1351.25,-102 1345.25,-108 1339.25,-108"/>
<text text-anchor="middle" x="1307" y="-87.5" font-family="sans" font-size="10.00">genotype_gvcf</text>
</g>
<!-- 19&#45;&gt;0 -->
<g id="edge10" class="edge"><title>19&#45;&gt;0</title>
<path fill="none" stroke="grey" stroke-width="2" d="M1351.42,-79.74C1364.18,-77.1526 1378.13,-74.3953 1391,-72 1490.11,-53.5578 1607.42,-34.3255 1665.94,-24.9095"/>
<polygon fill="grey" stroke="grey" points="1666.5,-28.3632 1675.82,-23.3219 1665.39,-21.4518 1666.5,-28.3632"/>
</g>
<!-- 20 -->
<g id="node21" class="node"><title>20</title>
<path fill="none" stroke="#d85656" stroke-width="2" d="M1339.25,-185.5C1339.25,-185.5 1244.75,-185.5 1244.75,-185.5 1238.75,-185.5 1232.75,-179.5 1232.75,-173.5 1232.75,-173.5 1232.75,-156.5 1232.75,-156.5 1232.75,-150.5 1238.75,-144.5 1244.75,-144.5 1244.75,-144.5 1339.25,-144.5 1339.25,-144.5 1345.25,-144.5 1351.25,-150.5 1351.25,-156.5 1351.25,-156.5 1351.25,-173.5 1351.25,-173.5 1351.25,-179.5 1345.25,-185.5 1339.25,-185.5"/>
<text text-anchor="middle" x="1292" y="-173.5" font-family="sans" font-size="10.00">genomics_db_import</text>
<text text-anchor="middle" x="1292" y="-162.5" font-family="sans" font-size="10.00">chrom: 10</text>
<text text-anchor="middle" x="1292" y="-151.5" font-family="sans" font-size="10.00">project: genmark</text>
</g>
<!-- 20&#45;&gt;19 -->
<g id="edge35" class="edge"><title>20&#45;&gt;19</title>
<path fill="none" stroke="grey" stroke-width="2" d="M1296.02,-144.437C1297.69,-136.302 1299.66,-126.725 1301.46,-117.941"/>
<polygon fill="grey" stroke="grey" points="1304.9,-118.63 1303.48,-108.13 1298.04,-117.221 1304.9,-118.63"/>
</g>
<!-- 21 -->
<g id="node22" class="node"><title>21</title>
<path fill="none" stroke="#afd856" stroke-width="2" d="M1476.25,-108C1476.25,-108 1411.75,-108 1411.75,-108 1405.75,-108 1399.75,-102 1399.75,-96 1399.75,-96 1399.75,-84 1399.75,-84 1399.75,-78 1405.75,-72 1411.75,-72 1411.75,-72 1476.25,-72 1476.25,-72 1482.25,-72 1488.25,-78 1488.25,-84 1488.25,-84 1488.25,-96 1488.25,-96 1488.25,-102 1482.25,-108 1476.25,-108"/>
<text text-anchor="middle" x="1444" y="-87.5" font-family="sans" font-size="10.00">genotype_gvcf</text>
</g>
<!-- 21&#45;&gt;0 -->
<g id="edge11" class="edge"><title>21&#45;&gt;0</title>
<path fill="none" stroke="grey" stroke-width="2" d="M1488.52,-76.9666C1538.65,-63.4192 1619.19,-41.6526 1666,-29.0011"/>
<polygon fill="grey" stroke="grey" points="1666.99,-32.3582 1675.73,-26.3703 1665.16,-25.6006 1666.99,-32.3582"/>
</g>
<!-- 22 -->
<g id="node23" class="node"><title>22</title>
<path fill="none" stroke="#d85656" stroke-width="2" d="M1476.25,-185.5C1476.25,-185.5 1381.75,-185.5 1381.75,-185.5 1375.75,-185.5 1369.75,-179.5 1369.75,-173.5 1369.75,-173.5 1369.75,-156.5 1369.75,-156.5 1369.75,-150.5 1375.75,-144.5 1381.75,-144.5 1381.75,-144.5 1476.25,-144.5 1476.25,-144.5 1482.25,-144.5 1488.25,-150.5 1488.25,-156.5 1488.25,-156.5 1488.25,-173.5 1488.25,-173.5 1488.25,-179.5 1482.25,-185.5 1476.25,-185.5"/>
<text text-anchor="middle" x="1429" y="-173.5" font-family="sans" font-size="10.00">genomics_db_import</text>
<text text-anchor="middle" x="1429" y="-162.5" font-family="sans" font-size="10.00">chrom: 11</text>
<text text-anchor="middle" x="1429" y="-151.5" font-family="sans" font-size="10.00">project: genmark</text>
</g>
<!-- 22&#45;&gt;21 -->
<g id="edge36" class="edge"><title>22&#45;&gt;21</title>
<path fill="none" stroke="grey" stroke-width="2" d="M1433.02,-144.437C1434.69,-136.302 1436.66,-126.725 1438.46,-117.941"/>
<polygon fill="grey" stroke="grey" points="1441.9,-118.63 1440.48,-108.13 1435.04,-117.221 1441.9,-118.63"/>
</g>
<!-- 23 -->
<g id="node24" class="node"><title>23</title>
<path fill="none" stroke="#afd856" stroke-width="2" d="M1613.25,-108C1613.25,-108 1548.75,-108 1548.75,-108 1542.75,-108 1536.75,-102 1536.75,-96 1536.75,-96 1536.75,-84 1536.75,-84 1536.75,-78 1542.75,-72 1548.75,-72 1548.75,-72 1613.25,-72 1613.25,-72 1619.25,-72 1625.25,-78 1625.25,-84 1625.25,-84 1625.25,-96 1625.25,-96 1625.25,-102 1619.25,-108 1613.25,-108"/>
<text text-anchor="middle" x="1581" y="-87.5" font-family="sans" font-size="10.00">genotype_gvcf</text>
</g>
<!-- 23&#45;&gt;0 -->
<g id="edge12" class="edge"><title>23&#45;&gt;0</title>
<path fill="none" stroke="grey" stroke-width="2" d="M1610.84,-71.8761C1627.78,-62.1563 1649.11,-49.9222 1666.97,-39.6706"/>
<polygon fill="grey" stroke="grey" points="1669.03,-42.5268 1675.96,-34.5142 1665.55,-36.4552 1669.03,-42.5268"/>
</g>
<!-- 24 -->
<g id="node25" class="node"><title>24</title>
<path fill="none" stroke="#d85656" stroke-width="2" d="M1613.25,-185.5C1613.25,-185.5 1518.75,-185.5 1518.75,-185.5 1512.75,-185.5 1506.75,-179.5 1506.75,-173.5 1506.75,-173.5 1506.75,-156.5 1506.75,-156.5 1506.75,-150.5 1512.75,-144.5 1518.75,-144.5 1518.75,-144.5 1613.25,-144.5 1613.25,-144.5 1619.25,-144.5 1625.25,-150.5 1625.25,-156.5 1625.25,-156.5 1625.25,-173.5 1625.25,-173.5 1625.25,-179.5 1619.25,-185.5 1613.25,-185.5"/>
<text text-anchor="middle" x="1566" y="-173.5" font-family="sans" font-size="10.00">genomics_db_import</text>
<text text-anchor="middle" x="1566" y="-162.5" font-family="sans" font-size="10.00">chrom: 12</text>
<text text-anchor="middle" x="1566" y="-151.5" font-family="sans" font-size="10.00">project: genmark</text>
</g>
<!-- 24&#45;&gt;23 -->
<g id="edge37" class="edge"><title>24&#45;&gt;23</title>
<path fill="none" stroke="grey" stroke-width="2" d="M1570.02,-144.437C1571.69,-136.302 1573.66,-126.725 1575.46,-117.941"/>
<polygon fill="grey" stroke="grey" points="1578.9,-118.63 1577.48,-108.13 1572.04,-117.221 1578.9,-118.63"/>
</g>
<!-- 25 -->
<g id="node26" class="node"><title>25</title>
<path fill="none" stroke="#afd856" stroke-width="2" d="M1735.25,-108C1735.25,-108 1670.75,-108 1670.75,-108 1664.75,-108 1658.75,-102 1658.75,-96 1658.75,-96 1658.75,-84 1658.75,-84 1658.75,-78 1664.75,-72 1670.75,-72 1670.75,-72 1735.25,-72 1735.25,-72 1741.25,-72 1747.25,-78 1747.25,-84 1747.25,-84 1747.25,-96 1747.25,-96 1747.25,-102 1741.25,-108 1735.25,-108"/>
<text text-anchor="middle" x="1703" y="-87.5" font-family="sans" font-size="10.00">genotype_gvcf</text>
</g>
<!-- 25&#45;&gt;0 -->
<g id="edge13" class="edge"><title>25&#45;&gt;0</title>
<path fill="none" stroke="grey" stroke-width="2" d="M1703,-71.6966C1703,-63.9827 1703,-54.7125 1703,-46.1124"/>
<polygon fill="grey" stroke="grey" points="1706.5,-46.1043 1703,-36.1043 1699.5,-46.1044 1706.5,-46.1043"/>
</g>
<!-- 26 -->
<g id="node27" class="node"><title>26</title>
<path fill="none" stroke="#d85656" stroke-width="2" d="M1750.25,-185.5C1750.25,-185.5 1655.75,-185.5 1655.75,-185.5 1649.75,-185.5 1643.75,-179.5 1643.75,-173.5 1643.75,-173.5 1643.75,-156.5 1643.75,-156.5 1643.75,-150.5 1649.75,-144.5 1655.75,-144.5 1655.75,-144.5 1750.25,-144.5 1750.25,-144.5 1756.25,-144.5 1762.25,-150.5 1762.25,-156.5 1762.25,-156.5 1762.25,-173.5 1762.25,-173.5 1762.25,-179.5 1756.25,-185.5 1750.25,-185.5"/>
<text text-anchor="middle" x="1703" y="-173.5" font-family="sans" font-size="10.00">genomics_db_import</text>
<text text-anchor="middle" x="1703" y="-162.5" font-family="sans" font-size="10.00">chrom: 13</text>
<text text-anchor="middle" x="1703" y="-151.5" font-family="sans" font-size="10.00">project: genmark</text>
</g>
<!-- 26&#45;&gt;25 -->
<g id="edge38" class="edge"><title>26&#45;&gt;25</title>
<path fill="none" stroke="grey" stroke-width="2" d="M1703,-144.437C1703,-136.391 1703,-126.933 1703,-118.228"/>
<polygon fill="grey" stroke="grey" points="1706.5,-118.13 1703,-108.13 1699.5,-118.13 1706.5,-118.13"/>
</g>
<!-- 27 -->
<g id="node28" class="node"><title>27</title>
<path fill="none" stroke="#afd856" stroke-width="2" d="M1842.25,-108C1842.25,-108 1777.75,-108 1777.75,-108 1771.75,-108 1765.75,-102 1765.75,-96 1765.75,-96 1765.75,-84 1765.75,-84 1765.75,-78 1771.75,-72 1777.75,-72 1777.75,-72 1842.25,-72 1842.25,-72 1848.25,-72 1854.25,-78 1854.25,-84 1854.25,-84 1854.25,-96 1854.25,-96 1854.25,-102 1848.25,-108 1842.25,-108"/>
<text text-anchor="middle" x="1810" y="-87.5" font-family="sans" font-size="10.00">genotype_gvcf</text>
</g>
<!-- 27&#45;&gt;0 -->
<g id="edge14" class="edge"><title>27&#45;&gt;0</title>
<path fill="none" stroke="grey" stroke-width="2" d="M1783.82,-71.8761C1769.96,-62.8083 1752.76,-51.5523 1737.79,-41.7592"/>
<polygon fill="grey" stroke="grey" points="1739.56,-38.7355 1729.28,-36.1898 1735.73,-44.5933 1739.56,-38.7355"/>
</g>
<!-- 28 -->
<g id="node29" class="node"><title>28</title>
<path fill="none" stroke="#d85656" stroke-width="2" d="M1887.25,-185.5C1887.25,-185.5 1792.75,-185.5 1792.75,-185.5 1786.75,-185.5 1780.75,-179.5 1780.75,-173.5 1780.75,-173.5 1780.75,-156.5 1780.75,-156.5 1780.75,-150.5 1786.75,-144.5 1792.75,-144.5 1792.75,-144.5 1887.25,-144.5 1887.25,-144.5 1893.25,-144.5 1899.25,-150.5 1899.25,-156.5 1899.25,-156.5 1899.25,-173.5 1899.25,-173.5 1899.25,-179.5 1893.25,-185.5 1887.25,-185.5"/>
<text text-anchor="middle" x="1840" y="-173.5" font-family="sans" font-size="10.00">genomics_db_import</text>
<text text-anchor="middle" x="1840" y="-162.5" font-family="sans" font-size="10.00">chrom: 14</text>
<text text-anchor="middle" x="1840" y="-151.5" font-family="sans" font-size="10.00">project: genmark</text>
</g>
<!-- 28&#45;&gt;27 -->
<g id="edge39" class="edge"><title>28&#45;&gt;27</title>
<path fill="none" stroke="grey" stroke-width="2" d="M1831.96,-144.437C1828.58,-136.214 1824.6,-126.516 1820.95,-117.655"/>
<polygon fill="grey" stroke="grey" points="1824.08,-116.049 1817.04,-108.13 1817.6,-118.709 1824.08,-116.049"/>
</g>
<!-- 29 -->
<g id="node30" class="node"><title>29</title>
<path fill="none" stroke="#afd856" stroke-width="2" d="M1949.25,-108C1949.25,-108 1884.75,-108 1884.75,-108 1878.75,-108 1872.75,-102 1872.75,-96 1872.75,-96 1872.75,-84 1872.75,-84 1872.75,-78 1878.75,-72 1884.75,-72 1884.75,-72 1949.25,-72 1949.25,-72 1955.25,-72 1961.25,-78 1961.25,-84 1961.25,-84 1961.25,-96 1961.25,-96 1961.25,-102 1955.25,-108 1949.25,-108"/>
<text text-anchor="middle" x="1917" y="-87.5" font-family="sans" font-size="10.00">genotype_gvcf</text>
</g>
<!-- 29&#45;&gt;0 -->
<g id="edge15" class="edge"><title>29&#45;&gt;0</title>
<path fill="none" stroke="grey" stroke-width="2" d="M1872.66,-74.496C1833.38,-61.6478 1776.71,-43.1103 1739.87,-31.0588"/>
<polygon fill="grey" stroke="grey" points="1740.62,-27.6242 1730.03,-27.8417 1738.45,-34.2773 1740.62,-27.6242"/>
</g>
<!-- 30 -->
<g id="node31" class="node"><title>30</title>
<path fill="none" stroke="#d85656" stroke-width="2" d="M2024.25,-185.5C2024.25,-185.5 1929.75,-185.5 1929.75,-185.5 1923.75,-185.5 1917.75,-179.5 1917.75,-173.5 1917.75,-173.5 1917.75,-156.5 1917.75,-156.5 1917.75,-150.5 1923.75,-144.5 1929.75,-144.5 1929.75,-144.5 2024.25,-144.5 2024.25,-144.5 2030.25,-144.5 2036.25,-150.5 2036.25,-156.5 2036.25,-156.5 2036.25,-173.5 2036.25,-173.5 2036.25,-179.5 2030.25,-185.5 2024.25,-185.5"/>
<text text-anchor="middle" x="1977" y="-173.5" font-family="sans" font-size="10.00">genomics_db_import</text>
<text text-anchor="middle" x="1977" y="-162.5" font-family="sans" font-size="10.00">chrom: 15</text>
<text text-anchor="middle" x="1977" y="-151.5" font-family="sans" font-size="10.00">project: genmark</text>
</g>
<!-- 30&#45;&gt;29 -->
<g id="edge40" class="edge"><title>30&#45;&gt;29</title>
<path fill="none" stroke="grey" stroke-width="2" d="M1960.92,-144.437C1953.73,-135.683 1945.16,-125.259 1937.51,-115.951"/>
<polygon fill="grey" stroke="grey" points="1940.13,-113.633 1931.08,-108.13 1934.72,-118.077 1940.13,-113.633"/>
</g>
<!-- 31 -->
<g id="node32" class="node"><title>31</title>
<path fill="none" stroke="#afd856" stroke-width="2" d="M2056.25,-108C2056.25,-108 1991.75,-108 1991.75,-108 1985.75,-108 1979.75,-102 1979.75,-96 1979.75,-96 1979.75,-84 1979.75,-84 1979.75,-78 1985.75,-72 1991.75,-72 1991.75,-72 2056.25,-72 2056.25,-72 2062.25,-72 2068.25,-78 2068.25,-84 2068.25,-84 2068.25,-96 2068.25,-96 2068.25,-102 2062.25,-108 2056.25,-108"/>
<text text-anchor="middle" x="2024" y="-87.5" font-family="sans" font-size="10.00">genotype_gvcf</text>
</g>
<!-- 31&#45;&gt;0 -->
<g id="edge16" class="edge"><title>31&#45;&gt;0</title>
<path fill="none" stroke="grey" stroke-width="2" d="M1979.61,-74.6047C1976.37,-73.6831 1973.14,-72.8039 1970,-72 1888.83,-51.2333 1792.03,-33.8113 1740.18,-25.0608"/>
<polygon fill="grey" stroke="grey" points="1740.57,-21.5764 1730.13,-23.3775 1739.41,-28.4804 1740.57,-21.5764"/>
</g>
<!-- 32 -->
<g id="node33" class="node"><title>32</title>
<path fill="none" stroke="#d85656" stroke-width="2" d="M2161.25,-185.5C2161.25,-185.5 2066.75,-185.5 2066.75,-185.5 2060.75,-185.5 2054.75,-179.5 2054.75,-173.5 2054.75,-173.5 2054.75,-156.5 2054.75,-156.5 2054.75,-150.5 2060.75,-144.5 2066.75,-144.5 2066.75,-144.5 2161.25,-144.5 2161.25,-144.5 2167.25,-144.5 2173.25,-150.5 2173.25,-156.5 2173.25,-156.5 2173.25,-173.5 2173.25,-173.5 2173.25,-179.5 2167.25,-185.5 2161.25,-185.5"/>
<text text-anchor="middle" x="2114" y="-173.5" font-family="sans" font-size="10.00">genomics_db_import</text>
<text text-anchor="middle" x="2114" y="-162.5" font-family="sans" font-size="10.00">chrom: 16</text>
<text text-anchor="middle" x="2114" y="-151.5" font-family="sans" font-size="10.00">project: genmark</text>
</g>
<!-- 32&#45;&gt;31 -->
<g id="edge41" class="edge"><title>32&#45;&gt;31</title>
<path fill="none" stroke="grey" stroke-width="2" d="M2089.88,-144.437C2078.54,-135.241 2064.93,-124.202 2053.03,-114.55"/>
<polygon fill="grey" stroke="grey" points="2055.09,-111.711 2045.12,-108.13 2050.68,-117.147 2055.09,-111.711"/>
</g>
<!-- 33 -->
<g id="node34" class="node"><title>33</title>
<path fill="none" stroke="#afd856" stroke-width="2" d="M2164.25,-108C2164.25,-108 2099.75,-108 2099.75,-108 2093.75,-108 2087.75,-102 2087.75,-96 2087.75,-96 2087.75,-84 2087.75,-84 2087.75,-78 2093.75,-72 2099.75,-72 2099.75,-72 2164.25,-72 2164.25,-72 2170.25,-72 2176.25,-78 2176.25,-84 2176.25,-84 2176.25,-96 2176.25,-96 2176.25,-102 2170.25,-108 2164.25,-108"/>
<text text-anchor="middle" x="2132" y="-87.5" font-family="sans" font-size="10.00">genotype_gvcf</text>
</g>
<!-- 33&#45;&gt;0 -->
<g id="edge17" class="edge"><title>33&#45;&gt;0</title>
<path fill="none" stroke="grey" stroke-width="2" d="M2087.74,-74.6558C2084.12,-73.6874 2080.51,-72.7861 2077,-72 1955.21,-44.7294 1807.8,-28.7139 1740.17,-22.2908"/>
<polygon fill="grey" stroke="grey" points="1740.3,-18.7879 1730.02,-21.3421 1739.65,-25.7575 1740.3,-18.7879"/>
</g>
<!-- 34 -->
<g id="node35" class="node"><title>34</title>
<path fill="none" stroke="#d85656" stroke-width="2" d="M2298.25,-185.5C2298.25,-185.5 2203.75,-185.5 2203.75,-185.5 2197.75,-185.5 2191.75,-179.5 2191.75,-173.5 2191.75,-173.5 2191.75,-156.5 2191.75,-156.5 2191.75,-150.5 2197.75,-144.5 2203.75,-144.5 2203.75,-144.5 2298.25,-144.5 2298.25,-144.5 2304.25,-144.5 2310.25,-150.5 2310.25,-156.5 2310.25,-156.5 2310.25,-173.5 2310.25,-173.5 2310.25,-179.5 2304.25,-185.5 2298.25,-185.5"/>
<text text-anchor="middle" x="2251" y="-173.5" font-family="sans" font-size="10.00">genomics_db_import</text>
<text text-anchor="middle" x="2251" y="-162.5" font-family="sans" font-size="10.00">chrom: 17</text>
<text text-anchor="middle" x="2251" y="-151.5" font-family="sans" font-size="10.00">project: genmark</text>
</g>
<!-- 34&#45;&gt;33 -->
<g id="edge42" class="edge"><title>34&#45;&gt;33</title>
<path fill="none" stroke="grey" stroke-width="2" d="M2219.11,-144.437C2203.54,-134.887 2184.73,-123.35 2168.58,-113.443"/>
<polygon fill="grey" stroke="grey" points="2170.28,-110.375 2159.92,-108.13 2166.62,-116.342 2170.28,-110.375"/>
</g>
<!-- 35 -->
<g id="node36" class="node"><title>35</title>
<path fill="none" stroke="#afd856" stroke-width="2" d="M2272.25,-108C2272.25,-108 2207.75,-108 2207.75,-108 2201.75,-108 2195.75,-102 2195.75,-96 2195.75,-96 2195.75,-84 2195.75,-84 2195.75,-78 2201.75,-72 2207.75,-72 2207.75,-72 2272.25,-72 2272.25,-72 2278.25,-72 2284.25,-78 2284.25,-84 2284.25,-84 2284.25,-96 2284.25,-96 2284.25,-102 2278.25,-108 2272.25,-108"/>
<text text-anchor="middle" x="2240" y="-87.5" font-family="sans" font-size="10.00">genotype_gvcf</text>
</g>
<!-- 35&#45;&gt;0 -->
<g id="edge18" class="edge"><title>35&#45;&gt;0</title>
<path fill="none" stroke="grey" stroke-width="2" d="M2195.46,-74.4557C2191.94,-73.5451 2188.43,-72.7109 2185,-72 2021.51,-38.0668 1822.02,-24.9 1740.45,-20.6904"/>
<polygon fill="grey" stroke="grey" points="1740.36,-17.1813 1730.2,-20.1765 1740.01,-24.1725 1740.36,-17.1813"/>
</g>
<!-- 36 -->
<g id="node37" class="node"><title>36</title>
<path fill="none" stroke="#d85656" stroke-width="2" d="M2435.25,-185.5C2435.25,-185.5 2340.75,-185.5 2340.75,-185.5 2334.75,-185.5 2328.75,-179.5 2328.75,-173.5 2328.75,-173.5 2328.75,-156.5 2328.75,-156.5 2328.75,-150.5 2334.75,-144.5 2340.75,-144.5 2340.75,-144.5 2435.25,-144.5 2435.25,-144.5 2441.25,-144.5 2447.25,-150.5 2447.25,-156.5 2447.25,-156.5 2447.25,-173.5 2447.25,-173.5 2447.25,-179.5 2441.25,-185.5 2435.25,-185.5"/>
<text text-anchor="middle" x="2388" y="-173.5" font-family="sans" font-size="10.00">genomics_db_import</text>
<text text-anchor="middle" x="2388" y="-162.5" font-family="sans" font-size="10.00">chrom: 18</text>
<text text-anchor="middle" x="2388" y="-151.5" font-family="sans" font-size="10.00">project: genmark</text>
</g>
<!-- 36&#45;&gt;35 -->
<g id="edge43" class="edge"><title>36&#45;&gt;35</title>
<path fill="none" stroke="grey" stroke-width="2" d="M2348.34,-144.437C2328.44,-134.622 2304.28,-122.707 2283.83,-112.621"/>
<polygon fill="grey" stroke="grey" points="2285.25,-109.414 2274.73,-108.13 2282.15,-115.692 2285.25,-109.414"/>
</g>
<!-- 37 -->
<g id="node38" class="node"><title>37</title>
<path fill="none" stroke="#afd856" stroke-width="2" d="M2382.25,-108C2382.25,-108 2317.75,-108 2317.75,-108 2311.75,-108 2305.75,-102 2305.75,-96 2305.75,-96 2305.75,-84 2305.75,-84 2305.75,-78 2311.75,-72 2317.75,-72 2317.75,-72 2382.25,-72 2382.25,-72 2388.25,-72 2394.25,-78 2394.25,-84 2394.25,-84 2394.25,-96 2394.25,-96 2394.25,-102 2388.25,-108 2382.25,-108"/>
<text text-anchor="middle" x="2350" y="-87.5" font-family="sans" font-size="10.00">genotype_gvcf</text>
</g>
<!-- 37&#45;&gt;0 -->
<g id="edge19" class="edge"><title>37&#45;&gt;0</title>
<path fill="none" stroke="grey" stroke-width="2" d="M2305.72,-74.858C2301.45,-73.7772 2297.16,-72.7984 2293,-72 2086.59,-32.3631 1833.72,-22.2343 1740.12,-19.761"/>
<polygon fill="grey" stroke="grey" points="1740.11,-16.2596 1730.02,-19.5079 1739.93,-23.2574 1740.11,-16.2596"/>
</g>
<!-- 38 -->
<g id="node39" class="node"><title>38</title>
<path fill="none" stroke="#d85656" stroke-width="2" d="M2572.25,-185.5C2572.25,-185.5 2477.75,-185.5 2477.75,-185.5 2471.75,-185.5 2465.75,-179.5 2465.75,-173.5 2465.75,-173.5 2465.75,-156.5 2465.75,-156.5 2465.75,-150.5 2471.75,-144.5 2477.75,-144.5 2477.75,-144.5 2572.25,-144.5 2572.25,-144.5 2578.25,-144.5 2584.25,-150.5 2584.25,-156.5 2584.25,-156.5 2584.25,-173.5 2584.25,-173.5 2584.25,-179.5 2578.25,-185.5 2572.25,-185.5"/>
<text text-anchor="middle" x="2525" y="-173.5" font-family="sans" font-size="10.00">genomics_db_import</text>
<text text-anchor="middle" x="2525" y="-162.5" font-family="sans" font-size="10.00">chrom: 19</text>
<text text-anchor="middle" x="2525" y="-151.5" font-family="sans" font-size="10.00">project: genmark</text>
</g>
<!-- 38&#45;&gt;37 -->
<g id="edge44" class="edge"><title>38&#45;&gt;37</title>
<path fill="none" stroke="grey" stroke-width="2" d="M2478.1,-144.437C2454.06,-134.408 2424.76,-122.186 2400.26,-111.964"/>
<polygon fill="grey" stroke="grey" points="2401.35,-108.628 2390.77,-108.008 2398.65,-115.088 2401.35,-108.628"/>
</g>
<!-- 39 -->
<g id="node40" class="node"><title>39</title>
<path fill="none" stroke="#afd856" stroke-width="2" d="M2495.25,-108C2495.25,-108 2430.75,-108 2430.75,-108 2424.75,-108 2418.75,-102 2418.75,-96 2418.75,-96 2418.75,-84 2418.75,-84 2418.75,-78 2424.75,-72 2430.75,-72 2430.75,-72 2495.25,-72 2495.25,-72 2501.25,-72 2507.25,-78 2507.25,-84 2507.25,-84 2507.25,-96 2507.25,-96 2507.25,-102 2501.25,-108 2495.25,-108"/>
<text text-anchor="middle" x="2463" y="-87.5" font-family="sans" font-size="10.00">genotype_gvcf</text>
</g>
<!-- 39&#45;&gt;0 -->
<g id="edge20" class="edge"><title>39&#45;&gt;0</title>
<path fill="none" stroke="grey" stroke-width="2" d="M2418.67,-75.3692C2413.42,-74.0749 2408.12,-72.9091 2403,-72 2152.7,-27.5303 1845.57,-20.3417 1740.38,-19.2044"/>
<polygon fill="grey" stroke="grey" points="1740.3,-15.7036 1730.27,-19.1074 1740.24,-22.7033 1740.3,-15.7036"/>
</g>
<!-- 40 -->
<g id="node41" class="node"><title>40</title>
<path fill="none" stroke="#d85656" stroke-width="2" d="M2709.25,-185.5C2709.25,-185.5 2614.75,-185.5 2614.75,-185.5 2608.75,-185.5 2602.75,-179.5 2602.75,-173.5 2602.75,-173.5 2602.75,-156.5 2602.75,-156.5 2602.75,-150.5 2608.75,-144.5 2614.75,-144.5 2614.75,-144.5 2709.25,-144.5 2709.25,-144.5 2715.25,-144.5 2721.25,-150.5 2721.25,-156.5 2721.25,-156.5 2721.25,-173.5 2721.25,-173.5 2721.25,-179.5 2715.25,-185.5 2709.25,-185.5"/>
<text text-anchor="middle" x="2662" y="-173.5" font-family="sans" font-size="10.00">genomics_db_import</text>
<text text-anchor="middle" x="2662" y="-162.5" font-family="sans" font-size="10.00">chrom: 20</text>
<text text-anchor="middle" x="2662" y="-151.5" font-family="sans" font-size="10.00">project: genmark</text>
</g>
<!-- 40&#45;&gt;39 -->
<g id="edge45" class="edge"><title>40&#45;&gt;39</title>
<path fill="none" stroke="grey" stroke-width="2" d="M2608.67,-144.437C2580.23,-134.003 2545.31,-121.195 2516.8,-110.735"/>
<polygon fill="grey" stroke="grey" points="2517.98,-107.442 2507.39,-107.284 2515.57,-114.014 2517.98,-107.442"/>
</g>
<!-- 41 -->
<g id="node42" class="node"><title>41</title>
<path fill="none" stroke="#afd856" stroke-width="2" d="M2613.25,-108C2613.25,-108 2548.75,-108 2548.75,-108 2542.75,-108 2536.75,-102 2536.75,-96 2536.75,-96 2536.75,-84 2536.75,-84 2536.75,-78 2542.75,-72 2548.75,-72 2548.75,-72 2613.25,-72 2613.25,-72 2619.25,-72 2625.25,-78 2625.25,-84 2625.25,-84 2625.25,-96 2625.25,-96 2625.25,-102 2619.25,-108 2613.25,-108"/>
<text text-anchor="middle" x="2581" y="-87.5" font-family="sans" font-size="10.00">genotype_gvcf</text>
</g>
<!-- 41&#45;&gt;0 -->
<g id="edge21" class="edge"><title>41&#45;&gt;0</title>
<path fill="none" stroke="grey" stroke-width="2" d="M2536.48,-76.1622C2529.67,-74.5446 2522.68,-73.0809 2516,-72 2219.81,-24.063 1856.26,-19.1788 1740.35,-18.9126"/>
<polygon fill="grey" stroke="grey" points="1740.23,-15.4125 1730.23,-18.9 1740.23,-22.4125 1740.23,-15.4125"/>
</g>
<!-- 42 -->
<g id="node43" class="node"><title>42</title>
<path fill="none" stroke="#d85656" stroke-width="2" d="M2846.25,-185.5C2846.25,-185.5 2751.75,-185.5 2751.75,-185.5 2745.75,-185.5 2739.75,-179.5 2739.75,-173.5 2739.75,-173.5 2739.75,-156.5 2739.75,-156.5 2739.75,-150.5 2745.75,-144.5 2751.75,-144.5 2751.75,-144.5 2846.25,-144.5 2846.25,-144.5 2852.25,-144.5 2858.25,-150.5 2858.25,-156.5 2858.25,-156.5 2858.25,-173.5 2858.25,-173.5 2858.25,-179.5 2852.25,-185.5 2846.25,-185.5"/>
<text text-anchor="middle" x="2799" y="-173.5" font-family="sans" font-size="10.00">genomics_db_import</text>
<text text-anchor="middle" x="2799" y="-162.5" font-family="sans" font-size="10.00">chrom: 21</text>
<text text-anchor="middle" x="2799" y="-151.5" font-family="sans" font-size="10.00">project: genmark</text>
</g>
<!-- 42&#45;&gt;41 -->
<g id="edge46" class="edge"><title>42&#45;&gt;41</title>
<path fill="none" stroke="grey" stroke-width="2" d="M2740.58,-144.437C2707.78,-133.453 2667.12,-119.838 2635.05,-109.101"/>
<polygon fill="grey" stroke="grey" points="2635.99,-105.723 2625.4,-105.867 2633.77,-112.361 2635.99,-105.723"/>
</g>
<!-- 43 -->
<g id="node44" class="node"><title>43</title>
<path fill="none" stroke="#afd856" stroke-width="2" d="M2742.25,-108C2742.25,-108 2677.75,-108 2677.75,-108 2671.75,-108 2665.75,-102 2665.75,-96 2665.75,-96 2665.75,-84 2665.75,-84 2665.75,-78 2671.75,-72 2677.75,-72 2677.75,-72 2742.25,-72 2742.25,-72 2748.25,-72 2754.25,-78 2754.25,-84 2754.25,-84 2754.25,-96 2754.25,-96 2754.25,-102 2748.25,-108 2742.25,-108"/>
<text text-anchor="middle" x="2710" y="-87.5" font-family="sans" font-size="10.00">genotype_gvcf</text>
</g>
<!-- 43&#45;&gt;0 -->
<g id="edge22" class="edge"><title>43&#45;&gt;0</title>
<path fill="none" stroke="grey" stroke-width="2" d="M2665.61,-77.7963C2655.3,-75.5474 2644.31,-73.4369 2634,-72 2289.29,-23.962 1866.97,-19.2295 1740.49,-18.9462"/>
<polygon fill="grey" stroke="grey" points="1740.2,-15.4459 1730.2,-18.9318 1740.19,-22.4458 1740.2,-15.4459"/>
</g>
<!-- 44 -->
<g id="node45" class="node"><title>44</title>
<path fill="none" stroke="#d85656" stroke-width="2" d="M2983.25,-185.5C2983.25,-185.5 2888.75,-185.5 2888.75,-185.5 2882.75,-185.5 2876.75,-179.5 2876.75,-173.5 2876.75,-173.5 2876.75,-156.5 2876.75,-156.5 2876.75,-150.5 2882.75,-144.5 2888.75,-144.5 2888.75,-144.5 2983.25,-144.5 2983.25,-144.5 2989.25,-144.5 2995.25,-150.5 2995.25,-156.5 2995.25,-156.5 2995.25,-173.5 2995.25,-173.5 2995.25,-179.5 2989.25,-185.5 2983.25,-185.5"/>
<text text-anchor="middle" x="2936" y="-173.5" font-family="sans" font-size="10.00">genomics_db_import</text>
<text text-anchor="middle" x="2936" y="-162.5" font-family="sans" font-size="10.00">chrom: 22</text>
<text text-anchor="middle" x="2936" y="-151.5" font-family="sans" font-size="10.00">project: genmark</text>
</g>
<!-- 44&#45;&gt;43 -->
<g id="edge47" class="edge"><title>44&#45;&gt;43</title>
<path fill="none" stroke="grey" stroke-width="2" d="M2876.62,-144.82C2841.75,-133.555 2798,-119.424 2764.08,-108.469"/>
<polygon fill="grey" stroke="grey" points="2764.93,-105.066 2754.34,-105.323 2762.78,-111.727 2764.93,-105.066"/>
</g>
<!-- 45 -->
<g id="node46" class="node"><title>45</title>
<path fill="none" stroke="#afd856" stroke-width="2" d="M2894.25,-108C2894.25,-108 2829.75,-108 2829.75,-108 2823.75,-108 2817.75,-102 2817.75,-96 2817.75,-96 2817.75,-84 2817.75,-84 2817.75,-78 2823.75,-72 2829.75,-72 2829.75,-72 2894.25,-72 2894.25,-72 2900.25,-72 2906.25,-78 2906.25,-84 2906.25,-84 2906.25,-96 2906.25,-96 2906.25,-102 2900.25,-108 2894.25,-108"/>
<text text-anchor="middle" x="2862" y="-87.5" font-family="sans" font-size="10.00">genotype_gvcf</text>
</g>
<!-- 45&#45;&gt;0 -->
<g id="edge23" class="edge"><title>45&#45;&gt;0</title>
<path fill="none" stroke="grey" stroke-width="2" d="M2817.31,-80.1546C2800.37,-77.1091 2780.85,-73.972 2763,-72 2364.47,-27.9802 1877.56,-20.5015 1740.48,-19.2484"/>
<polygon fill="grey" stroke="grey" points="1740.15,-15.7455 1730.12,-19.1597 1740.09,-22.7453 1740.15,-15.7455"/>
</g>
<!-- 46 -->
<g id="node47" class="node"><title>46</title>
<path fill="none" stroke="#d85656" stroke-width="2" d="M3120.25,-185.5C3120.25,-185.5 3025.75,-185.5 3025.75,-185.5 3019.75,-185.5 3013.75,-179.5 3013.75,-173.5 3013.75,-173.5 3013.75,-156.5 3013.75,-156.5 3013.75,-150.5 3019.75,-144.5 3025.75,-144.5 3025.75,-144.5 3120.25,-144.5 3120.25,-144.5 3126.25,-144.5 3132.25,-150.5 3132.25,-156.5 3132.25,-156.5 3132.25,-173.5 3132.25,-173.5 3132.25,-179.5 3126.25,-185.5 3120.25,-185.5"/>
<text text-anchor="middle" x="3073" y="-173.5" font-family="sans" font-size="10.00">genomics_db_import</text>
<text text-anchor="middle" x="3073" y="-162.5" font-family="sans" font-size="10.00">chrom: X</text>
<text text-anchor="middle" x="3073" y="-151.5" font-family="sans" font-size="10.00">project: genmark</text>
</g>
<!-- 46&#45;&gt;45 -->
<g id="edge48" class="edge"><title>46&#45;&gt;45</title>
<path fill="none" stroke="grey" stroke-width="2" d="M3016.46,-144.437C2985.28,-133.652 2946.78,-120.333 2916.02,-109.689"/>
<polygon fill="grey" stroke="grey" points="2916.92,-106.296 2906.32,-106.334 2914.63,-112.912 2916.92,-106.296"/>
</g>
<!-- 47 -->
<g id="node48" class="node"><title>47</title>
<path fill="none" stroke="#afd856" stroke-width="2" d="M3091.25,-108C3091.25,-108 3026.75,-108 3026.75,-108 3020.75,-108 3014.75,-102 3014.75,-96 3014.75,-96 3014.75,-84 3014.75,-84 3014.75,-78 3020.75,-72 3026.75,-72 3026.75,-72 3091.25,-72 3091.25,-72 3097.25,-72 3103.25,-78 3103.25,-84 3103.25,-84 3103.25,-96 3103.25,-96 3103.25,-102 3097.25,-108 3091.25,-108"/>
<text text-anchor="middle" x="3059" y="-87.5" font-family="sans" font-size="10.00">genotype_gvcf</text>
</g>
<!-- 47&#45;&gt;0 -->
<g id="edge24" class="edge"><title>47&#45;&gt;0</title>
<path fill="none" stroke="grey" stroke-width="2" d="M3014.65,-82.9063C2986.22,-79.2128 2948.5,-74.706 2915,-72 2453.16,-34.6916 1890.04,-22.3655 1740.77,-19.6363"/>
<polygon fill="grey" stroke="grey" points="1740.41,-16.1294 1730.35,-19.4492 1740.29,-23.1282 1740.41,-16.1294"/>
</g>
<!-- 48 -->
<g id="node49" class="node"><title>48</title>
<path fill="none" stroke="#d85656" stroke-width="2" d="M3257.25,-185.5C3257.25,-185.5 3162.75,-185.5 3162.75,-185.5 3156.75,-185.5 3150.75,-179.5 3150.75,-173.5 3150.75,-173.5 3150.75,-156.5 3150.75,-156.5 3150.75,-150.5 3156.75,-144.5 3162.75,-144.5 3162.75,-144.5 3257.25,-144.5 3257.25,-144.5 3263.25,-144.5 3269.25,-150.5 3269.25,-156.5 3269.25,-156.5 3269.25,-173.5 3269.25,-173.5 3269.25,-179.5 3263.25,-185.5 3257.25,-185.5"/>
<text text-anchor="middle" x="3210" y="-173.5" font-family="sans" font-size="10.00">genomics_db_import</text>
<text text-anchor="middle" x="3210" y="-162.5" font-family="sans" font-size="10.00">chrom: Y</text>
<text text-anchor="middle" x="3210" y="-151.5" font-family="sans" font-size="10.00">project: genmark</text>
</g>
<!-- 48&#45;&gt;47 -->
<g id="edge49" class="edge"><title>48&#45;&gt;47</title>
<path fill="none" stroke="grey" stroke-width="2" d="M3169.53,-144.437C3149.06,-134.541 3124.18,-122.51 3103.21,-112.372"/>
<polygon fill="grey" stroke="grey" points="3104.71,-109.209 3094.18,-108.008 3101.66,-115.512 3104.71,-109.209"/>
</g>
<!-- 49 -->
<g id="node50" class="node"><title>49</title>
<path fill="none" stroke="#afd856" stroke-width="2" d="M3378.25,-108C3378.25,-108 3313.75,-108 3313.75,-108 3307.75,-108 3301.75,-102 3301.75,-96 3301.75,-96 3301.75,-84 3301.75,-84 3301.75,-78 3307.75,-72 3313.75,-72 3313.75,-72 3378.25,-72 3378.25,-72 3384.25,-72 3390.25,-78 3390.25,-84 3390.25,-84 3390.25,-96 3390.25,-96 3390.25,-102 3384.25,-108 3378.25,-108"/>
<text text-anchor="middle" x="3346" y="-87.5" font-family="sans" font-size="10.00">genotype_gvcf</text>
</g>
<!-- 49&#45;&gt;0 -->
<g id="edge25" class="edge"><title>49&#45;&gt;0</title>
<path fill="none" stroke="grey" stroke-width="2" d="M3301.61,-85.311C3254.56,-81.5105 3178.09,-75.6426 3112,-72 2567.84,-42.0081 1904.5,-24.0972 1740.83,-19.9378"/>
<polygon fill="grey" stroke="grey" points="1740.44,-16.4268 1730.35,-19.6729 1740.26,-23.4245 1740.44,-16.4268"/>
</g>
<!-- 50 -->
<g id="node51" class="node"><title>50</title>
<path fill="none" stroke="#d85656" stroke-width="2" d="M3394.25,-185.5C3394.25,-185.5 3299.75,-185.5 3299.75,-185.5 3293.75,-185.5 3287.75,-179.5 3287.75,-173.5 3287.75,-173.5 3287.75,-156.5 3287.75,-156.5 3287.75,-150.5 3293.75,-144.5 3299.75,-144.5 3299.75,-144.5 3394.25,-144.5 3394.25,-144.5 3400.25,-144.5 3406.25,-150.5 3406.25,-156.5 3406.25,-156.5 3406.25,-173.5 3406.25,-173.5 3406.25,-179.5 3400.25,-185.5 3394.25,-185.5"/>
<text text-anchor="middle" x="3347" y="-173.5" font-family="sans" font-size="10.00">genomics_db_import</text>
<text text-anchor="middle" x="3347" y="-162.5" font-family="sans" font-size="10.00">chrom: MT</text>
<text text-anchor="middle" x="3347" y="-151.5" font-family="sans" font-size="10.00">project: genmark</text>
</g>
<!-- 50&#45;&gt;49 -->
<g id="edge50" class="edge"><title>50&#45;&gt;49</title>
<path fill="none" stroke="grey" stroke-width="2" d="M3346.73,-144.437C3346.62,-136.391 3346.49,-126.933 3346.37,-118.228"/>
<polygon fill="grey" stroke="grey" points="3349.87,-118.081 3346.23,-108.13 3342.87,-118.177 3349.87,-118.081"/>
</g>
</g>
</svg>
